<?xml version="1.0" encoding="utf-8"?>
<!-- Generator: Adobe Illustrator 16.0.0, SVG Export Plug-In . SVG Version: 6.00 Build 0)  -->
<!DOCTYPE svg PUBLIC "-//W3C//DTD SVG 1.1//EN" "http://www.w3.org/Graphics/SVG/1.1/DTD/svg11.dtd">
<svg version="1.1" id="圖層_1" xmlns="http://www.w3.org/2000/svg" xmlns:xlink="http://www.w3.org/1999/xlink" x="0px" y="0px"
	 width="100px" height="100px" viewBox="0 0 100 100" enable-background="new 0 0 100 100" xml:space="preserve">
<g>
	<g>
		<path fill="none" stroke="#4B8273" stroke-width="10" stroke-linecap="round" stroke-linejoin="round" stroke-miterlimit="10" d="
			M52,61.211"/>
	</g>
	<g>
		<path fill="#4B8273" d="M20.263,57.017c-1.163,0-2.325-0.456-3.189-1.367c-1.677-1.76-1.611-4.544,0.148-6.222l29.739-28.21
			c1.702-1.624,4.378-1.624,6.08,0l29.737,28.21c1.76,1.678,1.825,4.462,0.147,6.222c-1.678,1.761-4.469,1.827-6.229,0.148
			L50.001,30.494L23.303,55.798C22.447,56.612,21.353,57.017,20.263,57.017z"/>
	</g>
	<g>
		<path fill="#4B8273" d="M68.22,80H31.78c-2.432,0-4.405-1.969-4.405-4.406V45.132c0-2.433,1.974-4.405,4.405-4.405
			c2.434,0,4.406-1.028,4.406,1.405v29.056h27.627V42.132c0-2.433,1.973-1.405,4.406-1.405c2.432,0,4.405,1.972,4.405,4.405v30.461
			C72.625,78.031,70.651,80,68.22,80z"/>
	</g>
</g>
</svg>
