<?xml version="1.0" encoding="utf-8"?>
<!-- Generator: Adobe Illustrator 16.0.0, SVG Export Plug-In . SVG Version: 6.00 Build 0)  -->
<!DOCTYPE svg PUBLIC "-//W3C//DTD SVG 1.1//EN" "http://www.w3.org/Graphics/SVG/1.1/DTD/svg11.dtd">
<svg version="1.1" id="圖層_1" xmlns="http://www.w3.org/2000/svg" xmlns:xlink="http://www.w3.org/1999/xlink" x="0px" y="0px"
	 width="100px" height="100px" viewBox="0 0 100 100" enable-background="new 0 0 100 100" xml:space="preserve">
<g>
	<g>
		<path fill="#4B8273" d="M45.875,71.749C31.607,71.749,20,60.142,20,45.874C20,31.607,31.607,20,45.875,20
			c14.267,0,25.875,11.607,25.875,25.874C71.749,60.142,60.142,71.749,45.875,71.749z M45.875,29.409
			c-9.079,0-16.466,7.387-16.466,16.465c0,9.078,7.387,16.465,16.466,16.465c9.078,0,16.464-7.387,16.464-16.465
			C62.339,36.795,54.952,29.409,45.875,29.409z"/>
	</g>
	<g>
		<path fill="#4B8273" d="M75.296,80c-1.203,0-2.408-0.459-3.326-1.377L57.937,64.588c-1.839-1.839-1.839-4.816,0-6.651
			c1.834-1.839,4.812-1.838,6.65-0.001l14.036,14.032c1.837,1.839,1.837,4.817,0,6.655C77.704,79.541,76.501,80,75.296,80z"/>
	</g>
</g>
</svg>
